<svg width="22" height="22" viewBox="0 0 22 22" fill="none" xmlns="http://www.w3.org/2000/svg">
<path fill-rule="evenodd" clip-rule="evenodd" d="M2.09467 2.09467C3.42914 0.760201 5.42603 0.25 8 0.25H14C16.574 0.25 18.5709 0.760201 19.9053 2.09467C21.2398 3.42914 21.75 5.42603 21.75 8V14C21.75 16.574 21.2398 18.5709 19.9053 19.9053C18.5709 21.2398 16.574 21.75 14 21.75H8C5.42603 21.75 3.42914 21.2398 2.09467 19.9053C0.760201 18.5709 0.25 16.574 0.25 14V8C0.25 5.42603 0.760201 3.42914 2.09467 2.09467ZM3.15533 3.15533C2.2398 4.07086 1.75 5.57397 1.75 8V14C1.75 16.426 2.2398 17.9291 3.15533 18.8447C4.07086 19.7602 5.57397 20.25 8 20.25H14C16.426 20.25 17.9291 19.7602 18.8447 18.8447C19.7602 17.9291 20.25 16.426 20.25 14V8C20.25 5.57397 19.7602 4.07086 18.8447 3.15533C17.9291 2.2398 16.426 1.75 14 1.75H8C5.57397 1.75 4.07086 2.2398 3.15533 3.15533Z" fill="#9197B3"/>
<path fill-rule="evenodd" clip-rule="evenodd" d="M14.7513 7.26197C13.4129 5.9318 11.2466 5.93414 9.92035 7.26034C8.99619 8.18451 8.71458 9.51202 9.07686 10.6894C9.15856 10.955 9.0868 11.2439 8.89036 11.4403L6.32485 14.0058C6.32237 14.0092 6.31699 14.0169 6.30975 14.0298C6.29722 14.052 6.28419 14.0807 6.27344 14.1127C6.26264 14.1448 6.25665 14.1728 6.25411 14.1929C6.25329 14.1994 6.25297 14.204 6.25284 14.2067L6.25345 14.2109L6.41185 15.3989C6.4159 15.418 6.43537 15.4688 6.48729 15.5217C6.53966 15.5749 6.58011 15.5851 6.58291 15.5858C6.58303 15.5858 6.58294 15.5858 6.58291 15.5858L6.58915 15.5866L7.79724 15.7477C7.79961 15.7477 7.80778 15.7478 7.82189 15.7462C7.84404 15.7437 7.87145 15.738 7.9002 15.7286C7.92909 15.7191 7.952 15.7083 7.96691 15.6996C7.97019 15.6977 7.97267 15.6962 7.97442 15.695C7.97651 15.6929 7.97861 15.6908 7.98072 15.6887L10.5707 13.1087C10.7684 12.9117 11.059 12.8408 11.3251 12.9246C12.4956 13.2929 13.822 13.0067 14.7488 12.0805C16.0791 10.7412 16.0742 8.57666 14.7513 7.26197ZM15.8087 6.19806C13.8871 4.28823 10.7735 4.28589 8.85969 6.19968C7.64142 7.41796 7.20285 9.11585 7.52781 10.6816L5.2497 12.9597L5.23556 12.9742C5.05194 13.168 4.92648 13.4121 4.85161 13.6348C4.77835 13.8527 4.72592 14.1325 4.7674 14.4151L4.92661 15.6091L4.92875 15.624C4.98625 15.9978 5.17761 16.3291 5.41776 16.5734C5.65734 16.817 5.99434 17.0229 6.39347 17.0738L7.58652 17.2328C7.86191 17.2723 8.13928 17.2287 8.36735 17.154C8.59119 17.0806 8.84619 16.9514 9.04541 16.7453L11.3257 14.4738C12.8964 14.807 14.5946 14.3561 15.8103 13.1403L15.812 13.1387C17.7209 11.218 17.7256 8.10312 15.8087 6.19806Z" fill="#9197B3"/>
<path fill-rule="evenodd" clip-rule="evenodd" d="M8.07275 13.8866C8.36735 13.5954 8.84221 13.5982 9.13339 13.8928L9.98341 14.7528C10.2746 15.0474 10.2718 15.5223 9.97722 15.8134C9.68262 16.1046 9.20776 16.1018 8.91658 15.8072L8.06656 14.9472C7.77538 14.6526 7.77815 14.1778 8.07275 13.8866Z" fill="#9197B3"/>
<path fill-rule="evenodd" clip-rule="evenodd" d="M11.3945 9.70001C11.3945 9.14773 11.8422 8.70001 12.3945 8.70001H12.4035C12.9558 8.70001 13.4035 9.14773 13.4035 9.70001C13.4035 10.2523 12.9558 10.7 12.4035 10.7H12.3945C11.8422 10.7 11.3945 10.2523 11.3945 9.70001Z" fill="#9197B3"/>
</svg>
