<svg width="22" height="21" viewBox="0 0 22 21" fill="none" xmlns="http://www.w3.org/2000/svg">
<path fill-rule="evenodd" clip-rule="evenodd" d="M2.60156 14.1104C3.01578 14.1104 3.35156 14.4462 3.35156 14.8604C3.35156 16.021 4.4539 17.0504 6.18158 17.0504C7.89597 17.0504 9.0016 16.0137 9.0016 14.8604C9.0016 14.4462 9.33739 14.1104 9.7516 14.1104C10.1658 14.1104 10.5016 14.4462 10.5016 14.8604V16.8904C10.5016 19.119 8.46466 20.7504 6.18158 20.7504C3.90139 20.7504 1.85156 19.1215 1.85156 16.8904V14.8604C1.85156 14.4462 2.18735 14.1104 2.60156 14.1104ZM3.60513 17.856C4.03548 18.6474 4.9803 19.2504 6.18158 19.2504C7.38356 19.2504 8.32567 18.646 8.7524 17.8516C8.01279 18.3035 7.10857 18.5504 6.18158 18.5504C5.25221 18.5504 4.34618 18.3059 3.60513 17.856Z" fill="#9197B3"/>
<path fill-rule="evenodd" clip-rule="evenodd" d="M6.16003 9.76001C5.34166 9.76001 4.6302 10.0405 4.12456 10.4839L4.12395 10.4844C3.62392 10.922 3.34009 11.4948 3.34009 12.11C3.34009 12.4645 3.43796 12.7909 3.61109 13.0807C4.03854 13.773 4.97634 14.3 6.17004 14.3C7.36853 14.3 8.30277 13.7796 8.72815 13.0822C8.90187 12.7919 9.0001 12.465 9.0001 12.11C9.0001 11.493 8.71529 10.9173 8.20994 10.4962L8.20046 10.4883L8.20053 10.4882C7.68875 10.0473 6.97312 9.76001 6.16003 9.76001ZM3.13558 9.35611C3.92994 8.65952 4.9984 8.26001 6.16003 8.26001C7.32465 8.26001 8.38719 8.6711 9.17494 9.3478C9.98691 10.0266 10.5001 11.0092 10.5001 12.11C10.5001 12.7542 10.3188 13.3466 10.0132 13.8559L10.0109 13.8598L10.0109 13.8598C9.25561 15.1014 7.77043 15.8 6.17004 15.8C4.56568 15.8 3.08457 15.0888 2.33106 13.8627L2.32687 13.8559L2.32691 13.8559C2.02132 13.3466 1.84009 12.7542 1.84009 12.11C1.84009 11.0052 2.35621 10.0381 3.13619 9.35558L3.63007 9.92001L3.13558 9.35611Z" fill="#9197B3"/>
<path fill-rule="evenodd" clip-rule="evenodd" d="M6.18158 9.75C4.51321 9.75 3.35156 10.8998 3.35156 12.11V14.86C3.35156 16.0109 4.46426 17.05 6.18158 17.05C7.89779 17.05 9.0016 16.0218 9.0016 14.86V12.11C9.0016 11.493 8.71629 10.9116 8.21991 10.4763C7.70828 10.0365 6.99353 9.75 6.18158 9.75ZM1.85156 12.11C1.85156 9.88016 3.88995 8.25 6.18158 8.25C7.34849 8.25 8.41292 8.66271 9.20114 9.34179L9.20551 9.34555L9.20549 9.34557C9.98775 10.0301 10.5016 11.0079 10.5016 12.11V14.86C10.5016 17.1382 8.40537 18.55 6.18158 18.55C3.9589 18.55 1.85156 17.1291 1.85156 14.86V12.11Z" fill="#9197B3"/>
<path fill-rule="evenodd" clip-rule="evenodd" d="M17.92 8.69995C17.5609 8.69995 17.245 8.83919 17.0173 9.07311L17.0038 9.08658C16.7378 9.34624 16.5892 9.716 16.6266 10.1088L16.6275 10.1176L16.6274 10.1176C16.6803 10.7526 17.2909 11.2999 18.0399 11.2999H19.9828C20.1445 11.2895 20.25 11.1631 20.25 11.03V8.9699C20.25 8.83678 20.1444 8.71038 19.9828 8.69995H17.92ZM15.9492 8.01987C16.4609 7.49802 17.1624 7.19995 17.92 7.19995H20C20.0089 7.19995 20.0179 7.20011 20.0268 7.20043C20.9798 7.23446 21.75 8.00562 21.75 8.9699V11.03C21.75 11.9943 20.9797 12.7654 20.0268 12.7994C20.0179 12.7997 20.0089 12.7999 20 12.7999H18.0399C16.6303 12.7999 15.2623 11.7692 15.133 10.2466C15.0522 9.38448 15.3804 8.57901 15.9492 8.01987Z" fill="#9197B3"/>
<path fill-rule="evenodd" clip-rule="evenodd" d="M6 1.75C5.75575 1.75 5.52398 1.76744 5.30404 1.80128L5.28339 1.80416C4.17606 1.94312 3.30559 2.41721 2.70955 3.11651C2.11197 3.81761 1.75 4.79287 1.75 6V8C1.75 8.41421 1.41421 8.75 1 8.75C0.585786 8.75 0.25 8.41421 0.25 8V6C0.25 4.48713 0.70803 3.15239 1.56796 2.14349C2.42737 1.13519 3.64812 0.499904 5.08633 0.317136C5.38312 0.272041 5.68789 0.25 6 0.25H15C15.2697 0.25 15.5608 0.259756 15.8545 0.307111C17.305 0.479746 18.5395 1.1109 19.4103 2.12C20.2833 3.13163 20.75 4.4753 20.75 6V7.45001C20.75 7.86422 20.4142 8.20001 20 8.20001H17.92C17.561 8.20001 17.2452 8.33923 17.0174 8.57321L17.0039 8.58668C16.7378 8.84641 16.5892 9.21619 16.6266 9.60889L16.6275 9.61771L16.6274 9.61772C16.6803 10.2527 17.2909 10.8 18.04 10.8H20C20.4142 10.8 20.75 11.1358 20.75 11.55V13C20.75 14.6704 20.1899 16.1207 19.1553 17.1553C18.1207 18.1899 16.6704 18.75 15 18.75H12.5C12.0858 18.75 11.75 18.4142 11.75 18C11.75 17.5858 12.0858 17.25 12.5 17.25H15C16.3296 17.25 17.3793 16.8101 18.0947 16.0947C18.8101 15.3793 19.25 14.3296 19.25 13V12.3H18.04C16.6305 12.3 15.2623 11.2693 15.133 9.74669C15.0522 8.88449 15.3805 8.07904 15.9493 7.51996C16.4609 6.99817 17.1623 6.70001 17.92 6.70001H19.25V6C19.25 4.7847 18.8817 3.80336 18.2747 3.09999C17.6691 2.39822 16.7851 1.92541 15.6634 1.79497C15.6511 1.79354 15.6389 1.79182 15.6267 1.78979C15.4468 1.7598 15.2445 1.75 15 1.75H6Z" fill="#9197B3"/>
</svg>
